<?xml version="1.0" encoding="UTF-8" standalone="no"?><svg xmlns="http://www.w3.org/2000/svg" xmlns:xlink="http://www.w3.org/1999/xlink" contentStyleType="text/css" height="720px" preserveAspectRatio="none" style="width:514px;height:720px;background:#FFFFFF;" version="1.1" viewBox="0 0 514 720" width="514px" zoomAndPan="magnify"><defs/><g><!--MD5=[77d4d0fc85239ad4599824270418e7ce]
class Employer--><g id="elem_Employer"><rect codeLine="2" fill="#F1F1F1" height="196.3945" id="Employer" rx="2.5" ry="2.5" style="stroke:#181818;stroke-width:0.5;" width="163" x="91" y="7"/><ellipse cx="136.25" cy="23" fill="#ADD1B2" rx="11" ry="11" style="stroke:#181818;stroke-width:1.0;"/><path d="M138.7231,29.1431 Q138.1421,29.4419 137.5029,29.5913 Q136.8638,29.7407 136.1582,29.7407 Q133.6514,29.7407 132.3315,28.0889 Q131.0117,26.437 131.0117,23.3159 Q131.0117,20.1865 132.3315,18.5347 Q133.6514,16.8828 136.1582,16.8828 Q136.8638,16.8828 137.5112,17.0322 Q138.1587,17.1816 138.7231,17.4805 L138.7231,20.2031 Q138.0923,19.6221 137.4988,19.3523 Q136.9053,19.0825 136.2744,19.0825 Q134.9297,19.0825 134.2449,20.1492 Q133.5601,21.2158 133.5601,23.3159 Q133.5601,25.4077 134.2449,26.4744 Q134.9297,27.541 136.2744,27.541 Q136.9053,27.541 137.4988,27.2712 Q138.0923,27.0015 138.7231,26.4204 Z " fill="#000000"/><text fill="#000000" font-family="sans-serif" font-size="14" lengthAdjust="spacing" textLength="64" x="156.75" y="28.291">Employer</text><line style="stroke:#181818;stroke-width:0.5;" x1="92" x2="253" y1="39" y2="39"/><ellipse cx="102" cy="52.7441" fill="none" rx="3" ry="3" style="stroke:#038048;stroke-width:1.0;"/><text fill="#000000" font-family="sans-serif" font-size="14" lengthAdjust="spacing" textLength="74" x="111" y="56.5352">id : integer</text><line style="stroke:#181818;stroke-width:1.0;" x1="92" x2="253" y1="63.4883" y2="63.4883"/><text fill="#000000" font-family="sans-serif" font-size="14" lengthAdjust="spacing" textLength="91" x="97" y="81.0234">name : String</text><text fill="#000000" font-family="sans-serif" font-size="14" lengthAdjust="spacing" textLength="80" x="97" y="97.5117">size : String</text><text fill="#000000" font-family="sans-serif" font-size="14" lengthAdjust="spacing" textLength="133" x="97" y="114">hq_location : String</text><text fill="#000000" font-family="sans-serif" font-size="14" lengthAdjust="spacing" textLength="151" x="97" y="130.4883">company_type : String</text><text fill="#000000" font-family="sans-serif" font-size="14" lengthAdjust="spacing" textLength="130" x="97" y="146.9766">description : String</text><text fill="#000000" font-family="sans-serif" font-size="14" lengthAdjust="spacing" textLength="131" x="97" y="163.4648">website_url : String</text><text fill="#000000" font-family="sans-serif" font-size="14" lengthAdjust="spacing" textLength="121" x="97" y="179.9531">image_url : String</text><text fill="#000000" font-family="sans-serif" font-size="14" lengthAdjust="spacing" textLength="109" x="97" y="196.4414">map_url : String</text></g><!--MD5=[b8e0354e0f3f5cbf52553869b78c0afa]
class Job--><g id="elem_Job"><rect codeLine="15" fill="#F1F1F1" height="196.3945" id="Job" rx="2.5" ry="2.5" style="stroke:#181818;stroke-width:0.5;" width="157" x="7" y="320"/><ellipse cx="70.25" cy="336" fill="#ADD1B2" rx="11" ry="11" style="stroke:#181818;stroke-width:1.0;"/><path d="M72.7231,342.1431 Q72.1421,342.4419 71.5029,342.5913 Q70.8638,342.7407 70.1582,342.7407 Q67.6514,342.7407 66.3315,341.0889 Q65.0117,339.437 65.0117,336.3159 Q65.0117,333.1865 66.3315,331.5347 Q67.6514,329.8828 70.1582,329.8828 Q70.8638,329.8828 71.5112,330.0322 Q72.1587,330.1816 72.7231,330.4805 L72.7231,333.2031 Q72.0923,332.6221 71.4988,332.3523 Q70.9053,332.0825 70.2744,332.0825 Q68.9297,332.0825 68.2449,333.1492 Q67.5601,334.2158 67.5601,336.3159 Q67.5601,338.4077 68.2449,339.4744 Q68.9297,340.541 70.2744,340.541 Q70.9053,340.541 71.4988,340.2712 Q72.0923,340.0015 72.7231,339.4204 Z " fill="#000000"/><text fill="#000000" font-family="sans-serif" font-size="14" lengthAdjust="spacing" textLength="22" x="90.75" y="341.291">Job</text><line style="stroke:#181818;stroke-width:0.5;" x1="8" x2="163" y1="352" y2="352"/><ellipse cx="18" cy="365.7441" fill="none" rx="3" ry="3" style="stroke:#038048;stroke-width:1.0;"/><text fill="#000000" font-family="sans-serif" font-size="14" lengthAdjust="spacing" textLength="74" x="27" y="369.5352">id : integer</text><line style="stroke:#181818;stroke-width:1.0;" x1="8" x2="163" y1="376.4883" y2="376.4883"/><text fill="#000000" font-family="sans-serif" font-size="14" lengthAdjust="spacing" textLength="79" x="13" y="394.0234">title : String</text><text fill="#000000" font-family="sans-serif" font-size="14" lengthAdjust="spacing" textLength="111" x="13" y="410.5117">job_type : String</text><text fill="#000000" font-family="sans-serif" font-size="14" lengthAdjust="spacing" textLength="141" x="13" y="427">last_updated : String</text><text fill="#000000" font-family="sans-serif" font-size="14" lengthAdjust="spacing" textLength="93" x="13" y="443.4883">salary : String</text><text fill="#000000" font-family="sans-serif" font-size="14" lengthAdjust="spacing" textLength="130" x="13" y="459.9766">description : String</text><text fill="#000000" font-family="sans-serif" font-size="14" lengthAdjust="spacing" textLength="121" x="13" y="476.4648">image_url : String</text><text fill="#000000" font-family="sans-serif" font-size="14" lengthAdjust="spacing" textLength="131" x="13" y="492.9531">posting_url : String</text><text fill="#000000" font-family="sans-serif" font-size="14" lengthAdjust="spacing" textLength="145" x="13" y="509.4414">employer_id : integer</text></g><!--MD5=[42e1add689e888dd7b55d3ee3f1dd6d7]
class Skill--><g id="elem_Skill"><rect codeLine="28" fill="#F1F1F1" height="80.9766" id="Skill" rx="2.5" ry="2.5" style="stroke:#181818;stroke-width:0.5;" width="103" x="207" y="633"/><ellipse cx="241.35" cy="649" fill="#ADD1B2" rx="11" ry="11" style="stroke:#181818;stroke-width:1.0;"/><path d="M243.8231,655.1431 Q243.2421,655.4419 242.6029,655.5913 Q241.9638,655.7407 241.2582,655.7407 Q238.7514,655.7407 237.4315,654.0889 Q236.1117,652.437 236.1117,649.3159 Q236.1117,646.1865 237.4315,644.5347 Q238.7514,642.8828 241.2582,642.8828 Q241.9638,642.8828 242.6112,643.0322 Q243.2587,643.1816 243.8231,643.4805 L243.8231,646.2031 Q243.1923,645.6221 242.5988,645.3523 Q242.0053,645.0825 241.3744,645.0825 Q240.0297,645.0825 239.3449,646.1492 Q238.6601,647.2158 238.6601,649.3159 Q238.6601,651.4077 239.3449,652.4744 Q240.0297,653.541 241.3744,653.541 Q242.0053,653.541 242.5988,653.2712 Q243.1923,653.0015 243.8231,652.4204 Z " fill="#000000"/><text fill="#000000" font-family="sans-serif" font-size="14" lengthAdjust="spacing" textLength="28" x="259.65" y="654.291">Skill</text><line style="stroke:#181818;stroke-width:0.5;" x1="208" x2="309" y1="665" y2="665"/><ellipse cx="218" cy="678.7441" fill="none" rx="3" ry="3" style="stroke:#038048;stroke-width:1.0;"/><text fill="#000000" font-family="sans-serif" font-size="14" lengthAdjust="spacing" textLength="74" x="227" y="682.5352">id : integer</text><line style="stroke:#181818;stroke-width:1.0;" x1="208" x2="309" y1="689.4883" y2="689.4883"/><text fill="#000000" font-family="sans-serif" font-size="14" lengthAdjust="spacing" textLength="91" x="213" y="707.0234">name : String</text></g><!--MD5=[6b13f1b330d33795af281e5c1dfe1e98]
class Resource--><g id="elem_Resource"><rect codeLine="34" fill="#F1F1F1" height="179.9063" id="Resource" rx="2.5" ry="2.5" style="stroke:#181818;stroke-width:0.5;" width="137" x="370" y="328.5"/><ellipse cx="403.9" cy="344.5" fill="#ADD1B2" rx="11" ry="11" style="stroke:#181818;stroke-width:1.0;"/><path d="M406.3731,350.6431 Q405.7921,350.9419 405.1529,351.0913 Q404.5138,351.2407 403.8082,351.2407 Q401.3014,351.2407 399.9815,349.5889 Q398.6617,347.937 398.6617,344.8159 Q398.6617,341.6865 399.9815,340.0347 Q401.3014,338.3828 403.8082,338.3828 Q404.5138,338.3828 405.1612,338.5322 Q405.8087,338.6816 406.3731,338.9805 L406.3731,341.7031 Q405.7423,341.1221 405.1488,340.8523 Q404.5553,340.5825 403.9244,340.5825 Q402.5797,340.5825 401.8949,341.6492 Q401.2101,342.7158 401.2101,344.8159 Q401.2101,346.9077 401.8949,347.9744 Q402.5797,349.041 403.9244,349.041 Q404.5553,349.041 405.1488,348.7712 Q405.7423,348.5015 406.3731,347.9204 Z " fill="#000000"/><text fill="#000000" font-family="sans-serif" font-size="14" lengthAdjust="spacing" textLength="63" x="422.1" y="349.791">Resource</text><line style="stroke:#181818;stroke-width:0.5;" x1="371" x2="506" y1="360.5" y2="360.5"/><ellipse cx="381" cy="374.2441" fill="none" rx="3" ry="3" style="stroke:#038048;stroke-width:1.0;"/><text fill="#000000" font-family="sans-serif" font-size="14" lengthAdjust="spacing" textLength="74" x="390" y="378.0352">id : integer</text><line style="stroke:#181818;stroke-width:1.0;" x1="371" x2="506" y1="384.9883" y2="384.9883"/><text fill="#000000" font-family="sans-serif" font-size="14" lengthAdjust="spacing" textLength="91" x="376" y="402.5234">name : String</text><text fill="#000000" font-family="sans-serif" font-size="14" lengthAdjust="spacing" textLength="87" x="376" y="419.0117">price : String</text><text fill="#000000" font-family="sans-serif" font-size="14" lengthAdjust="spacing" textLength="120" x="376" y="435.5">instructor : String</text><text fill="#000000" font-family="sans-serif" font-size="14" lengthAdjust="spacing" textLength="93" x="376" y="451.9883">locale : String</text><text fill="#000000" font-family="sans-serif" font-size="14" lengthAdjust="spacing" textLength="112" x="376" y="468.4766">headline : String</text><text fill="#000000" font-family="sans-serif" font-size="14" lengthAdjust="spacing" textLength="121" x="376" y="484.9648">image_url : String</text><text fill="#000000" font-family="sans-serif" font-size="14" lengthAdjust="spacing" textLength="125" x="376" y="501.4531">course_url : String</text></g><!--MD5=[ded6ab74e933470a1c1fb1c85f0e385d]
link Employer to Job--><g id="link_Employer_Job"><path codeLine="46" d="M145.45,202.7 C135,240.05 123.06,282.72 112.61,320.09 " fill="none" id="Employer-Job" style="stroke:#181818;stroke-width:1.0;"/><polygon fill="#000000" points="133.153,266.4704,138.42,258.5515,132.7595,256.968,133.153,266.4704" style="stroke:#000000;stroke-width:1.0;"/><text fill="#000000" font-family="sans-serif" font-size="13" lengthAdjust="spacing" textLength="22" x="143.5" y="266.5684">has</text><text fill="#000000" font-family="sans-serif" font-size="13" lengthAdjust="spacing" textLength="8" x="129.1053" y="224.4983">1</text><text fill="#000000" font-family="sans-serif" font-size="13" lengthAdjust="spacing" textLength="22" x="91.8938" y="309.2552">0..*</text></g><!--MD5=[2a3983923c3357f2f0f44f65e67dafb6]
link Job to Skill--><g id="link_Job_Skill"><path codeLine="47" d="M126.48,515.86 C138,538.77 151.53,562.48 166.5,583 C179.6,600.95 196.5,618.46 212.24,633.13 " fill="none" id="Job-Skill" style="stroke:#181818;stroke-width:1.0;"/><polygon fill="#000000" points="174.4515,578.6912,171.4845,569.6553,166.7399,573.125,174.4515,578.6912" style="stroke:#000000;stroke-width:1.0;"/><text fill="#000000" font-family="sans-serif" font-size="13" lengthAdjust="spacing" textLength="51" x="180.5" y="579.5684">requires</text><text fill="#000000" font-family="sans-serif" font-size="13" lengthAdjust="spacing" textLength="8" x="127.9561" y="536.5723">1</text><text fill="#000000" font-family="sans-serif" font-size="13" lengthAdjust="spacing" textLength="6" x="197.4656" y="622.2013">*</text></g><!--MD5=[65e64a27c7606392a658db68d2139ea5]
link Resource to Skill--><g id="link_Resource_Skill"><path codeLine="48" d="M375.54,507.49 C345.03,550.38 309.94,599.7 286.2,633.06 " fill="none" id="Resource-Skill" style="stroke:#181818;stroke-width:1.0;"/><polygon fill="#000000" points="333.6014,578.7293,341.2397,573.063,336.4503,569.6555,333.6014,578.7293" style="stroke:#000000;stroke-width:1.0;"/><text fill="#000000" font-family="sans-serif" font-size="13" lengthAdjust="spacing" textLength="48" x="345.5" y="579.5684">teaches</text><text fill="#000000" font-family="sans-serif" font-size="13" lengthAdjust="spacing" textLength="6" x="355.9358" y="521.9074">*</text><text fill="#000000" font-family="sans-serif" font-size="13" lengthAdjust="spacing" textLength="22" x="293.0934" y="622.1188">0..*</text></g><!--MD5=[60f577ec3b00a21f19af294c32072757]
link Employer to Skill--><g id="link_Employer_Skill"><path codeLine="49" d="M189.46,202.62 C194.78,233.69 200.54,268.27 205.5,300 C224.46,421.33 244.19,565.38 253.31,633.12 " fill="none" id="Employer-Skill" style="stroke:#181818;stroke-width:1.0;"/><polygon fill="#000000" points="246.2336,423.1012,247.8137,413.7228,241.9994,414.5851,246.2336,423.1012" style="stroke:#000000;stroke-width:1.0;"/><text fill="#000000" font-family="sans-serif" font-size="13" lengthAdjust="spacing" textLength="37" x="254.5" y="423.0684">needs</text><text fill="#000000" font-family="sans-serif" font-size="13" lengthAdjust="spacing" textLength="6" x="187.2118" y="224.3968">*</text><text fill="#000000" font-family="sans-serif" font-size="13" lengthAdjust="spacing" textLength="22" x="228.4262" y="622.1895">0..*</text></g><!--MD5=[baec655bbb0acd626948a47eb2a621c6]
@startuml

class Employer {
  + id : integer
  - -
  name : String
  size : String
  hq_location : String
  company_type : String
  description : String
  website_url : String
  image_url : String
  map_url : String
}

class Job {
  + id : integer
  - -
  title : String
  job_type : String
  last_updated : String
  salary : String
  description : String
  image_url : String
  posting_url : String
  employer_id : integer
}

class Skill {
  + id : integer
  - -
  name : String
}

class Resource {
  + id : integer
  - -
  name : String
  price : String
  instructor : String
  locale : String
  headline : String
  image_url : String
  course_url : String
}

Employer "1" - - "0..*" Job : has >
Job "1" - - "*" Skill : requires >
Resource "*" - - "0..*" Skill : teaches >
Employer "*" - - "0..*" Skill : needs >

@enduml

PlantUML version 1.2022.7(Mon Aug 22 12:01:30 CDT 2022)
(GPL source distribution)
Java Runtime: OpenJDK Runtime Environment
JVM: OpenJDK 64-Bit Server VM
Default Encoding: UTF-8
Language: en
Country: US
--></g></svg>