<svg width="46" height="23" viewBox="0 0 46 23" fill="none" xmlns="http://www.w3.org/2000/svg">
<path d="M5.7131 5.90532C1.76449 9.17109 0.358129 12.576 0.0335892 14.9272C-0.236863 18.4813 1.16949 20.8324 2.68402 22.0353C4.19856 23.2382 8.30944 23.4023 10.9058 22.0353C13.5021 20.6684 18.4244 17.333 22.5893 17.333L22.5893 0C17.5589 0 10.3696 2.05405 5.7131 5.90532Z M39.4655 5.90532C43.4141 9.17109 44.8204 12.576 45.145 14.9272C45.4154 18.4813 44.0091 20.8324 42.4945 22.0353C40.98 23.2382 36.8691 23.4023 34.2728 22.0353C31.6764 20.6684 26.7542 17.333 22.5892 17.333L22.5893 0C27.6197 0 34.8089 2.05405 39.4655 5.90532Z" fill="#FAFAFA"/>
</svg>
