<svg width="836" height="431" viewBox="0 0 836 431" fill="none" xmlns="http://www.w3.org/2000/svg">
<path d="M105.717 114.377C32.6508 174.864 6.62694 237.93 0.621547 281.477C-4.383 347.305 21.6406 390.852 49.6661 413.132C77.6916 435.413 153.761 438.451 201.804 413.132C249.848 387.814 340.931 326.038 418.001 326.038L418.001 5C324.916 5 191.883 43.0446 105.717 114.377Z M730.283 114.377C803.349 174.864 829.373 237.93 835.378 281.477C840.383 347.305 814.359 390.852 786.334 413.132C758.308 435.413 682.239 438.451 634.196 413.132C586.152 387.814 495.069 326.038 417.999 326.038L418.001 5C511.085 5 644.117 43.0446 730.283 114.377Z" fill="white"/>
<g clip-path="url(#clip0_41_249)">
<path d="M327.938 307.441H266.003C256.724 307.441 249.201 314.961 249.201 324.237V324.237C249.201 333.513 256.724 341.032 266.003 341.032H327.938C337.218 341.032 344.74 333.513 344.74 324.237C344.74 314.961 337.218 307.441 327.938 307.441Z" fill="#3C4355"/>
<path d="M309 332V365.539C302.674 366.277 296.298 366.129 290 365.096V332H309Z" fill="#3C4355"/>
<path d="M373.481 342.745C372.96 342.817 372.446 342.89 371.926 342.975C351.105 346.308 332.102 357.545 311.189 360.193C310.511 360.278 309.839 360.357 309.16 360.416C308.87 360.443 308.58 360.476 308.29 360.496C303.184 355.496 298.077 350.174 293.281 344.662C290.678 341.678 288.161 338.635 285.796 335.552C279.655 327.596 274.45 319.415 271.01 311.38C271.359 307.527 268.961 298.615 267.815 291.791L267.808 291.785C267.321 288.92 267.057 286.43 267.301 284.829C268.698 275.595 276.242 276.656 278.561 267.606C280.653 265.87 282.881 264.304 285.223 262.923C285.611 262.692 286.007 262.462 286.415 262.231L311.585 244.843L321.204 254.275L335.845 268.633L351.711 284.184L338.243 297.785C338.243 297.785 349.497 310.754 362.655 328.044C366.187 332.687 369.857 337.647 373.481 342.745Z" fill="#2B2A3C"/>
<path d="M590.505 332.47V413.135C584.294 415.077 577.885 416.316 571.397 416.83V332.47H590.505Z" fill="#3C4355"/>
<path d="M615.213 325.883H553.278C543.998 325.883 536.476 333.403 536.476 342.679V342.679C536.476 351.955 543.998 359.475 553.278 359.475H615.213C624.493 359.475 632.015 351.955 632.015 342.679C632.015 333.403 624.493 325.883 615.213 325.883Z" fill="#3C4355"/>
<path d="M464.552 369.196C461.225 367.181 457.84 365.211 454.399 363.288C453.977 363.058 453.555 362.821 453.134 362.59L455.4 361.622L461.515 358.994L461.574 358.967L461.64 359.191L464.552 369.196Z" fill="#FFB6B6"/>
<path d="M474.02 375.058C472.933 374.367 471.853 373.688 470.765 373.017H470.759C469.006 371.917 467.249 370.832 465.488 369.763C465.178 369.572 464.868 369.387 464.552 369.196C461.225 367.181 457.84 365.211 454.399 363.288C453.977 363.058 453.555 362.821 453.134 362.59C446.475 358.898 439.631 355.55 432.629 352.559C428.03 350.622 423.372 348.877 418.667 347.388H418.661L414.964 341.204L398.327 313.349L394.67 307.23C394.67 307.23 382.198 310.919 364.546 314.456C358.122 315.747 351.019 317.011 343.567 318.078C335.601 319.211 327.246 320.113 318.944 320.548C314.985 320.759 311.038 320.864 307.15 320.831C297.102 320.766 287.45 319.824 278.996 317.584C276.176 314.936 267.676 311.334 261.588 308.034H261.582C259.025 306.651 256.904 305.327 255.79 304.148C249.372 297.364 254.854 292.075 249.148 284.671C249.072 281.955 249.21 279.238 249.564 276.544C249.623 276.096 249.682 275.641 249.755 275.18L251.553 244.645L264.916 242.88L285.249 240.193L307.276 237.281L309.7 256.264C309.7 256.264 326.851 255.394 348.581 255.684C383.483 256.158 430.185 259.636 436.51 274.561C437.103 275.964 437.696 277.38 438.289 278.796C439.699 282.182 441.096 285.585 442.479 289.005C447.494 301.388 452.277 313.889 456.645 325.705C459.36 333.056 461.917 340.143 464.269 346.776C466.16 352.111 467.912 357.156 469.514 361.8C470.976 366.041 472.301 369.947 473.48 373.451C473.665 373.998 473.842 374.538 474.02 375.058Z" fill="#2B2A3C"/>
<path d="M351.101 190.051L308.896 154.219L336.355 126.439L355.512 157.806L426.523 171.88C428.659 170.273 431.215 169.323 433.882 169.144C436.548 168.965 439.209 169.565 441.54 170.872C443.87 172.179 445.771 174.135 447.008 176.502C448.246 178.87 448.768 181.546 448.511 184.205C448.253 186.864 447.228 189.391 445.558 191.477C443.889 193.563 441.649 195.119 439.111 195.954C436.572 196.79 433.846 196.869 431.263 196.182C428.681 195.495 426.354 194.072 424.567 192.086L351.101 190.051Z" fill="#A0616A"/>
<path d="M271.596 107.128C266.718 122.99 313.171 160.821 313.171 160.821C313.687 157.013 340.025 189.85 341.817 186.877C346.909 178.425 352.513 157.532 358.392 154.862C361.754 153.335 342.466 132.11 342.466 132.11C342.466 132.11 332.627 119.098 319.637 102.606C316.051 97.8755 311.326 94.1289 305.901 91.7149C300.477 89.301 294.53 88.2981 288.614 88.7998C288.614 88.7998 276.473 91.2658 271.596 107.128Z" fill="#3F3D56"/>
<path d="M292.135 72.0126C307.9 72.0126 320.68 59.2368 320.68 43.4771C320.68 27.7174 307.9 14.9416 292.135 14.9416C276.369 14.9416 263.589 27.7174 263.589 43.4771C263.589 59.2368 276.369 72.0126 292.135 72.0126Z" fill="#A0616A"/>
<path d="M306.408 90.8726C312.557 94.5274 316.236 101.243 318.348 108.076C322.258 120.727 324.611 133.807 325.356 147.027L327.587 186.605L355.211 270.877C331.27 291.128 241.277 275.48 241.277 275.48C241.277 275.48 238.515 274.56 241.277 271.798C244.04 269.036 246.729 271.483 243.967 268.721C241.204 265.96 243.108 269.036 244.029 266.275C244.95 263.513 244.029 265.355 243.108 264.434C242.188 263.513 250.237 255.229 250.237 255.229L242.87 206.856L233.662 109.283C244.712 95.475 266.935 87.3356 266.935 87.3356L272.677 77.0035L301.388 79.2995L306.408 90.8726Z" fill="#3F3D56"/>
<path d="M315.666 28.3166C317.885 29.9708 319.528 32.2789 320.366 34.916C320.687 30.6065 320.708 26.2797 320.427 21.9673C320.09 18.9369 317.956 18.2553 315.485 17.4655C313.253 16.7519 310.729 15.9458 310.05 13.004C301.077 4.27791 285.457 4.71793 274.766 7.76174C268.884 9.43669 265.499 11.5887 265.197 12.8493L265.134 13.1088L264.895 13.2282C260.361 15.4945 259.478 22.6511 259.536 28.2555C259.647 38.8147 263.294 50.8072 265.349 51.7814C265.457 51.8329 265.485 51.8127 265.532 51.7735C268.626 49.302 272.4 51.9613 274.059 53.407C275.037 46.8443 278.187 40.7986 283.006 36.2356C287.825 31.6725 294.034 28.8552 300.642 28.2337C302.8 28.0252 304.941 27.6663 307.049 27.1597C308.119 26.8832 309.218 26.739 310.322 26.7304C312.224 26.7015 314.089 27.255 315.666 28.3166Z" fill="#2F2E41"/>
<path d="M279.697 233.043L270.965 228.572C270.497 228.239 270.165 227.749 270.029 227.191C269.892 226.633 269.962 226.045 270.224 225.534C270.485 225.022 270.923 224.622 271.455 224.407C271.987 224.191 272.58 224.174 273.124 224.359L281.856 228.829C282.324 229.163 282.656 229.653 282.792 230.211C282.928 230.769 282.859 231.357 282.597 231.868C282.335 232.379 281.898 232.779 281.366 232.995C280.833 233.211 280.241 233.228 279.697 233.043Z" fill="#6C63FF"/>
<path d="M250.309 221.066L235.944 167.608L274.33 160.344L272.266 197.037L322.702 248.951C325.372 248.842 328.016 249.512 330.312 250.879C332.608 252.246 334.456 254.252 335.632 256.651C336.807 259.05 337.259 261.739 336.932 264.39C336.605 267.042 335.513 269.54 333.79 271.582C332.067 273.624 329.786 275.121 327.227 275.889C324.668 276.658 321.94 276.666 319.376 275.912C316.813 275.157 314.524 273.674 312.789 271.642C311.055 269.61 309.949 267.117 309.607 264.468L250.309 221.066Z" fill="#A0616A"/>
<path d="M232.016 107.671C218.987 117.953 235.71 175.469 235.71 175.469C238.3 172.629 241.308 214.61 244.473 213.18C253.468 209.118 269.954 195.108 276.31 196.25C279.945 196.903 276.137 168.482 276.137 168.482C276.137 168.482 275.436 152.186 274.12 131.236C273.857 125.307 272.099 119.54 269.007 114.472C265.916 109.405 261.592 105.202 256.438 102.255C256.438 102.255 245.046 97.3883 232.016 107.671Z" fill="#3F3D56"/>
<path d="M683.626 254.907L162.169 254.314C159.238 248.103 156.636 241.743 154.374 235.259L671.252 235.806C676.226 241.581 680.389 248.007 683.626 254.907Z" fill="#3F3D56"/>
<path d="M517.54 393.105C514.845 394.41 512.126 395.668 509.383 396.88C504.823 394.291 500.316 391.584 495.836 388.818L512.453 381.52L517.54 393.105Z" fill="#FFB6B6"/>
<path d="M638.696 302.343C635.995 305.966 633.208 309.516 630.335 312.993C627.686 316.201 624.967 319.347 622.178 322.432C621.025 323.71 619.859 324.981 618.666 326.239C616.472 328.59 614.23 330.902 611.939 333.175C607.814 334.472 599.46 336.758 590.505 338.892C583.989 340.44 577.156 341.908 571.397 342.844C568.174 343.422 564.913 343.77 561.639 343.884C557.752 343.917 553.805 343.812 549.845 343.601C545.378 343.364 540.904 342.995 536.483 342.521C524.985 341.316 513.85 339.438 504.244 337.509C500.725 336.81 497.417 336.099 494.373 335.407C488.608 334.11 483.785 332.898 480.293 331.976C476.359 330.948 474.119 330.283 474.119 330.283L464.269 346.776L459.156 355.332L455.4 361.622L454.399 363.288C453.977 363.058 453.555 362.821 453.134 362.59C446.475 358.898 439.631 355.55 432.629 352.559C428.03 350.622 423.372 348.877 418.667 347.388H418.661C416.862 346.822 415.057 346.288 413.245 345.801C413.811 344.279 414.385 342.747 414.964 341.204C416.045 338.325 417.147 335.421 418.272 332.49C420.703 326.14 423.22 319.699 425.81 313.29C427.931 308.027 430.092 302.784 432.28 297.614C433.288 295.23 435.337 293.135 438.203 291.297C439.573 290.434 441.002 289.668 442.48 289.005C450.683 285.271 462.767 282.84 476.083 281.279C477.183 281.154 478.29 281.029 479.404 280.91C490.427 279.751 502.122 279.152 513.06 278.875C518.535 278.737 523.819 278.684 528.735 278.678C530.322 278.678 531.867 278.682 533.367 278.691H533.373C537.425 278.711 541.155 278.77 544.436 278.836C545.075 278.849 545.694 278.869 546.301 278.882H546.307C546.716 278.888 547.118 278.902 547.513 278.908C554.688 279.093 559.09 279.317 559.09 279.317L560.796 265.933L561.145 263.232L561.475 260.663V260.657L561.514 260.334L561.784 260.328L566.528 260.235L606.404 259.458L628.187 259.03L624.735 273.823L619.035 298.233C619.615 302.093 638.894 299.07 638.696 302.343Z" fill="#2F2E41"/>
<path d="M522.455 390.668C520.828 391.498 519.187 392.315 517.54 393.105C514.845 394.41 512.126 395.668 509.383 396.88C504.823 394.291 500.317 391.584 495.836 388.818C488.522 384.299 481.281 379.623 474.02 375.058C472.933 374.367 471.853 373.688 470.765 373.017H470.759C467.768 368.577 464.717 363.953 461.64 359.191C461.594 359.126 461.554 359.06 461.515 358.994C460.724 357.782 459.938 356.561 459.156 355.332C454.234 347.625 449.286 339.59 444.482 331.383L456.646 325.705L479.258 315.154L483.159 313.336L494.373 335.407L504.375 355.095L506.602 359.475L522.455 390.668Z" fill="#2F2E41"/>
<path d="M525.863 284.703L583.516 229.123L599.496 183.894L575.925 173.648C563.819 185.241 550.732 221.351 550.732 221.351L511.058 271.806C510.749 271.912 510.441 272.024 510.136 272.159C508.349 272.947 506.796 274.182 505.626 275.745C504.456 277.308 503.71 279.147 503.458 281.083C503.207 283.019 503.459 284.987 504.191 286.797C504.923 288.607 506.11 290.197 507.636 291.415C509.163 292.633 510.978 293.436 512.906 293.747C514.834 294.059 516.809 293.868 518.642 293.193C520.474 292.518 522.102 291.382 523.367 289.895C524.632 288.408 525.492 286.619 525.863 284.703Z" fill="#FFB8B8"/>
<path d="M569.293 178.698L599.19 188.186L599.303 188.167C610.431 186.304 619.664 168.136 625.451 153.223C627.354 148.304 627.319 142.846 625.351 137.952C623.383 133.059 619.63 129.094 614.851 126.861C611.314 125.237 607.393 124.635 603.531 125.122C599.67 125.609 596.021 127.166 592.999 129.617L577.646 142.157L569.293 178.698Z" fill="#6C63FF"/>
<path d="M638.576 303.01L638.751 302.778C648.079 290.411 635.321 259.786 633.392 255.344L642.065 252.776L640.553 236.267L639.825 228.906L646.569 222.504L646.592 222.341L651.229 189.347L657.298 167.51C659.585 159.255 659.633 150.54 657.438 142.26C655.242 133.98 650.882 126.433 644.805 120.394L632.4 108.082L617.537 84.8271L592.619 84.184L583.658 100.096C575.325 101.796 567.853 106.365 562.543 113.006C557.233 119.647 554.422 127.94 554.599 136.44L555.443 178.802L546.501 231.288L546.251 240.822L537.475 250.079L539.097 259.438L532.533 262.052L529.32 275.351C528.094 276.886 519.993 287.122 519.919 289.975C519.908 290.403 520.214 290.826 520.881 291.303C526.124 295.053 555.431 303.179 568.621 298.294C582.671 293.094 637.735 302.859 638.29 302.959L638.576 303.01Z" fill="#6C63FF"/>
<path d="M602.902 77.0552C621.134 77.0552 635.914 62.2802 635.914 44.0543C635.914 25.8284 621.134 11.0534 602.902 11.0534C584.669 11.0534 569.889 25.8284 569.889 44.0543C569.889 62.2802 584.669 77.0552 602.902 77.0552Z" fill="#FFB8B8"/>
<path d="M598.875 77.4967C603.987 77.5764 609.097 77.2195 614.148 76.4297C619.155 75.4119 630.357 67.2065 633.479 62.2688C635.799 58.6002 637.283 52.8714 638.119 48.7118C639.245 43.2073 639.202 37.5277 637.993 32.0409C636.784 26.5541 634.435 21.3823 631.099 16.8605C629.817 14.9692 628.048 13.4593 625.978 12.4908C625.794 12.4191 625.605 12.3555 625.415 12.3012C622.398 11.5078 619.688 9.83143 617.632 7.48716C617.233 7.013 616.801 6.56816 616.338 6.15611C614.014 4.19556 611.259 2.81262 608.298 2.12036C603.518 0.841641 596.601 2.11094 587.739 5.89664C583.287 7.79865 578.418 7.11031 574.672 6.29805C574.462 6.25749 574.245 6.27262 574.043 6.34195C573.84 6.41129 573.659 6.5324 573.518 6.69325C571.925 8.18886 569.824 9.02604 567.638 9.03652C566.299 9.09529 564.894 10.9484 563.196 13.365C562.811 13.9136 562.361 14.5538 562.037 14.9432L561.994 14.1951L561.236 15.0297C560.046 16.3414 559.207 17.9329 558.797 19.656C558.388 21.3792 558.421 23.1779 558.894 24.8846C559.368 26.5914 560.265 28.1507 561.503 29.4174C562.742 30.6841 564.281 31.6169 565.977 32.129C567.323 32.4872 568.703 32.707 570.095 32.785C570.938 32.8608 571.809 32.9392 572.645 33.0841C575.326 33.6331 577.82 34.8676 579.881 36.6674C581.943 38.4671 583.503 40.7705 584.408 43.3526C584.622 43.9495 584.97 44.4892 585.426 44.9301C585.882 45.371 586.433 45.7012 587.037 45.8954C587.641 46.0896 588.281 46.1424 588.909 46.0499C589.536 45.9574 590.134 45.7219 590.656 45.3617C591.526 44.6843 592.548 44.2273 593.633 44.0297C594.718 43.8322 595.835 43.9 596.888 44.2273C597.799 44.7333 598.507 45.5367 598.895 46.5029C599.367 47.5794 600.149 48.491 601.141 49.1215C604.534 50.8703 604.768 58.6174 603.549 65.0755C602.374 71.3006 600.052 75.8039 597.902 76.0265C596.247 76.1977 596.058 76.3152 595.938 76.6078L595.831 76.8697L596.017 77.1148C596.931 77.4461 597.906 77.5763 598.875 77.4967Z" fill="#2F2E41"/>
<path d="M577.491 168.721L564.762 143.352C546.286 144.614 509.617 165.969 509.617 165.969L440.237 180.673C438.181 179.884 435.954 179.649 433.779 179.993C431.605 180.337 429.559 181.248 427.848 182.634C426.137 184.02 424.822 185.832 424.034 187.887C423.247 189.943 423.015 192.169 423.362 194.343C423.709 196.517 424.622 198.561 426.01 200.269C427.399 201.978 429.213 203.29 431.27 204.075C433.327 204.86 435.555 205.089 437.729 204.74C439.903 204.391 441.947 203.475 443.654 202.085L531.91 195.761L577.491 168.721Z" fill="#FFB8B8"/>
<path d="M572.357 172.886L605.601 148.19L611.457 127.095C612.591 122.95 612.543 118.57 611.318 114.45C610.093 110.331 607.74 106.636 604.524 103.783C600.139 99.945 594.46 97.9148 588.635 98.1027C582.81 98.2906 577.274 100.683 573.145 104.795C560.635 117.277 546.367 134.691 549.432 146.766L549.463 146.889L572.357 172.886Z" fill="#6C63FF"/>
<path d="M531.205 238.941H442.255V250.797H531.205V238.941Z M303.889 238.941H214.939V250.797H303.889V238.941Z" fill="white"/>
<path d="M314.275 181.927V238.376C314.276 239.095 314.562 239.785 315.071 240.294C315.58 240.803 316.27 241.089 316.989 241.089H400.671C401.391 241.089 402.081 240.803 402.59 240.294C403.098 239.785 403.385 239.095 403.385 238.376V181.927C403.383 181.208 403.097 180.519 402.588 180.011C402.079 179.503 401.39 179.218 400.671 179.217H316.989C316.27 179.218 315.581 179.503 315.072 180.011C314.564 180.519 314.277 181.208 314.275 181.927Z" fill="#3F3D56"/>
<path d="M316.239 182.629V237.68C316.239 238.064 316.392 238.432 316.664 238.704C316.936 238.976 317.305 239.129 317.689 239.13H399.975C400.359 239.129 400.728 238.976 401 238.704C401.272 238.432 401.425 238.064 401.425 237.68V182.629C401.425 182.244 401.273 181.875 401.001 181.603C400.729 181.331 400.36 181.177 399.975 181.176H317.689C317.304 181.177 316.935 181.331 316.663 181.603C316.392 181.875 316.239 182.244 316.239 182.629Z" fill="#6C63FF"/>
<path d="M312.526 249.385C312.679 249.577 312.874 249.732 313.095 249.838C313.317 249.944 313.56 249.999 313.806 249.998H403.41C403.655 249.997 403.896 249.942 404.118 249.837C404.339 249.731 404.534 249.578 404.688 249.388C404.842 249.197 404.952 248.975 405.01 248.737C405.068 248.499 405.071 248.251 405.021 248.011L403.63 241.407C403.573 241.137 403.449 240.887 403.269 240.678C403.09 240.469 402.861 240.308 402.604 240.209C402.417 240.136 402.219 240.099 402.019 240.099H315.191C314.991 240.099 314.793 240.136 314.606 240.209C314.349 240.308 314.12 240.469 313.941 240.678C313.761 240.887 313.637 241.137 313.58 241.407L312.189 248.011C312.139 248.251 312.144 248.499 312.202 248.736C312.26 248.974 312.371 249.196 312.526 249.385Z" fill="#2F2E41"/>
<path d="M398.944 242.944H401.06C401.238 242.944 401.382 242.8 401.382 242.622V241.61C401.382 241.433 401.238 241.289 401.06 241.289H398.944C398.766 241.289 398.622 241.433 398.622 241.61V242.622C398.622 242.8 398.766 242.944 398.944 242.944Z" fill="#3F3D56"/>
<path d="M393.424 242.944H395.541C395.718 242.944 395.862 242.8 395.862 242.622V241.61C395.862 241.433 395.718 241.289 395.541 241.289H393.424C393.247 241.289 393.103 241.433 393.103 241.61V242.622C393.103 242.8 393.247 242.944 393.424 242.944Z" fill="#3F3D56"/>
<path d="M387.905 242.944H390.022C390.199 242.944 390.343 242.8 390.343 242.622V241.61C390.343 241.433 390.199 241.289 390.022 241.289H387.905C387.728 241.289 387.584 241.433 387.584 241.61V242.622C387.584 242.8 387.728 242.944 387.905 242.944Z" fill="#3F3D56"/>
<path d="M382.386 242.944H384.502C384.68 242.944 384.824 242.8 384.824 242.622V241.61C384.824 241.433 384.68 241.289 384.502 241.289H382.386C382.208 241.289 382.064 241.433 382.064 241.61V242.622C382.064 242.8 382.208 242.944 382.386 242.944Z" fill="#3F3D56"/>
<path d="M376.866 242.944H378.983C379.16 242.944 379.304 242.8 379.304 242.622V241.61C379.304 241.433 379.16 241.289 378.983 241.289H376.866C376.688 241.289 376.544 241.433 376.544 241.61V242.622C376.544 242.8 376.688 242.944 376.866 242.944Z" fill="#3F3D56"/>
<path d="M371.347 242.944H373.463C373.641 242.944 373.785 242.8 373.785 242.622V241.61C373.785 241.433 373.641 241.289 373.463 241.289H371.347C371.169 241.289 371.025 241.433 371.025 241.61V242.622C371.025 242.8 371.169 242.944 371.347 242.944Z" fill="#3F3D56"/>
<path d="M365.827 242.944H367.943C368.121 242.944 368.265 242.8 368.265 242.622V241.61C368.265 241.433 368.121 241.289 367.943 241.289H365.827C365.649 241.289 365.505 241.433 365.505 241.61V242.622C365.505 242.8 365.649 242.944 365.827 242.944Z" fill="#3F3D56"/>
<path d="M360.308 242.944H362.424C362.602 242.944 362.746 242.8 362.746 242.622V241.61C362.746 241.433 362.602 241.289 362.424 241.289H360.308C360.13 241.289 359.986 241.433 359.986 241.61V242.622C359.986 242.8 360.13 242.944 360.308 242.944Z" fill="#3F3D56"/>
<path d="M354.788 242.944H356.904C357.082 242.944 357.226 242.8 357.226 242.622V241.61C357.226 241.433 357.082 241.289 356.904 241.289H354.788C354.61 241.289 354.466 241.433 354.466 241.61V242.622C354.466 242.8 354.61 242.944 354.788 242.944Z" fill="#3F3D56"/>
<path d="M349.268 242.944H351.385C351.563 242.944 351.707 242.8 351.707 242.622V241.61C351.707 241.433 351.563 241.289 351.385 241.289H349.268C349.091 241.289 348.947 241.433 348.947 241.61V242.622C348.947 242.8 349.091 242.944 349.268 242.944Z" fill="#3F3D56"/>
<path d="M343.749 242.944H345.865C346.043 242.944 346.187 242.8 346.187 242.622V241.61C346.187 241.433 346.043 241.289 345.865 241.289H343.749C343.571 241.289 343.427 241.433 343.427 241.61V242.622C343.427 242.8 343.571 242.944 343.749 242.944Z" fill="#3F3D56"/>
<path d="M338.229 242.944H340.346C340.523 242.944 340.667 242.8 340.667 242.622V241.61C340.667 241.433 340.523 241.289 340.346 241.289H338.229C338.052 241.289 337.908 241.433 337.908 241.61V242.622C337.908 242.8 338.052 242.944 338.229 242.944Z" fill="#3F3D56"/>
<path d="M332.71 242.944H334.827C335.004 242.944 335.148 242.8 335.148 242.622V241.61C335.148 241.433 335.004 241.289 334.827 241.289H332.71C332.533 241.289 332.389 241.433 332.389 241.61V242.622C332.389 242.8 332.533 242.944 332.71 242.944Z" fill="#3F3D56"/>
<path d="M327.191 242.944H329.307C329.485 242.944 329.629 242.8 329.629 242.622V241.61C329.629 241.433 329.485 241.289 329.307 241.289H327.191C327.013 241.289 326.869 241.433 326.869 241.61V242.622C326.869 242.8 327.013 242.944 327.191 242.944Z" fill="#3F3D56"/>
<path d="M321.671 242.944H323.788C323.965 242.944 324.109 242.8 324.109 242.622V241.61C324.109 241.433 323.965 241.289 323.788 241.289H321.671C321.494 241.289 321.35 241.433 321.35 241.61V242.622C321.35 242.8 321.494 242.944 321.671 242.944Z" fill="#3F3D56"/>
<path d="M316.152 242.944H318.268C318.446 242.944 318.59 242.8 318.59 242.622V241.61C318.59 241.433 318.446 241.289 318.268 241.289H316.152C315.974 241.289 315.83 241.433 315.83 241.61V242.622C315.83 242.8 315.974 242.944 316.152 242.944Z" fill="#3F3D56"/>
<path d="M399.009 245.703H401.126C401.303 245.703 401.447 245.559 401.447 245.381V244.369C401.447 244.191 401.303 244.047 401.126 244.047H399.009C398.832 244.047 398.687 244.191 398.687 244.369V245.381C398.687 245.559 398.832 245.703 399.009 245.703Z" fill="#3F3D56"/>
<path d="M393.49 245.703H395.606C395.784 245.703 395.928 245.559 395.928 245.381V244.369C395.928 244.191 395.784 244.047 395.606 244.047H393.49C393.312 244.047 393.168 244.191 393.168 244.369V245.381C393.168 245.559 393.312 245.703 393.49 245.703Z" fill="#3F3D56"/>
<path d="M387.97 245.703H390.087C390.264 245.703 390.408 245.559 390.408 245.381V244.369C390.408 244.191 390.264 244.047 390.087 244.047H387.97C387.792 244.047 387.648 244.191 387.648 244.369V245.381C387.648 245.559 387.792 245.703 387.97 245.703Z" fill="#3F3D56"/>
<path d="M382.451 245.703H384.567C384.745 245.703 384.889 245.559 384.889 245.381V244.369C384.889 244.191 384.745 244.047 384.567 244.047H382.451C382.273 244.047 382.129 244.191 382.129 244.369V245.381C382.129 245.559 382.273 245.703 382.451 245.703Z" fill="#3F3D56"/>
<path d="M376.931 245.703H379.047C379.225 245.703 379.369 245.559 379.369 245.381V244.369C379.369 244.191 379.225 244.047 379.047 244.047H376.931C376.753 244.047 376.609 244.191 376.609 244.369V245.381C376.609 245.559 376.753 245.703 376.931 245.703Z" fill="#3F3D56"/>
<path d="M371.412 245.703H373.528C373.706 245.703 373.85 245.559 373.85 245.381V244.369C373.85 244.191 373.706 244.047 373.528 244.047H371.412C371.234 244.047 371.09 244.191 371.09 244.369V245.381C371.09 245.559 371.234 245.703 371.412 245.703Z" fill="#3F3D56"/>
<path d="M365.893 245.703H368.009C368.187 245.703 368.331 245.559 368.331 245.381V244.369C368.331 244.191 368.187 244.047 368.009 244.047H365.893C365.715 244.047 365.571 244.191 365.571 244.369V245.381C365.571 245.559 365.715 245.703 365.893 245.703Z" fill="#3F3D56"/>
<path d="M360.373 245.703H362.489C362.667 245.703 362.811 245.559 362.811 245.381V244.369C362.811 244.191 362.667 244.047 362.489 244.047H360.373C360.195 244.047 360.051 244.191 360.051 244.369V245.381C360.051 245.559 360.195 245.703 360.373 245.703Z" fill="#3F3D56"/>
<path d="M354.853 245.703H356.97C357.147 245.703 357.292 245.559 357.292 245.381V244.369C357.292 244.191 357.147 244.047 356.97 244.047H354.853C354.676 244.047 354.532 244.191 354.532 244.369V245.381C354.532 245.559 354.676 245.703 354.853 245.703Z" fill="#3F3D56"/>
<path d="M349.334 245.703H351.45C351.628 245.703 351.772 245.559 351.772 245.381V244.369C351.772 244.191 351.628 244.047 351.45 244.047H349.334C349.156 244.047 349.012 244.191 349.012 244.369V245.381C349.012 245.559 349.156 245.703 349.334 245.703Z" fill="#3F3D56"/>
<path d="M343.814 245.703H345.931C346.108 245.703 346.252 245.559 346.252 245.381V244.369C346.252 244.191 346.108 244.047 345.931 244.047H343.814C343.637 244.047 343.493 244.191 343.493 244.369V245.381C343.493 245.559 343.637 245.703 343.814 245.703Z" fill="#3F3D56"/>
<path d="M338.295 245.703H340.411C340.589 245.703 340.733 245.559 340.733 245.381V244.369C340.733 244.191 340.589 244.047 340.411 244.047H338.295C338.117 244.047 337.973 244.191 337.973 244.369V245.381C337.973 245.559 338.117 245.703 338.295 245.703Z" fill="#3F3D56"/>
<path d="M332.775 245.703H334.892C335.069 245.703 335.213 245.559 335.213 245.381V244.369C335.213 244.191 335.069 244.047 334.892 244.047H332.775C332.598 244.047 332.454 244.191 332.454 244.369V245.381C332.454 245.559 332.598 245.703 332.775 245.703Z" fill="#3F3D56"/>
<path d="M327.256 245.703H329.372C329.55 245.703 329.694 245.559 329.694 245.381V244.369C329.694 244.191 329.55 244.047 329.372 244.047H327.256C327.078 244.047 326.934 244.191 326.934 244.369V245.381C326.934 245.559 327.078 245.703 327.256 245.703Z" fill="#3F3D56"/>
<path d="M321.736 245.703H323.853C324.03 245.703 324.174 245.559 324.174 245.381V244.369C324.174 244.191 324.03 244.047 323.853 244.047H321.736C321.559 244.047 321.415 244.191 321.415 244.369V245.381C321.415 245.559 321.559 245.703 321.736 245.703Z" fill="#3F3D56"/>
<path d="M316.217 245.703H318.333C318.511 245.703 318.655 245.559 318.655 245.381V244.369C318.655 244.191 318.511 244.047 318.333 244.047H316.217C316.039 244.047 315.895 244.191 315.895 244.369V245.381C315.895 245.559 316.039 245.703 316.217 245.703Z" fill="#3F3D56"/>
<path d="M353.197 249.013H374.632C374.81 249.013 374.954 248.869 374.954 248.692V247.679C374.954 247.502 374.81 247.358 374.632 247.358H353.197C353.02 247.358 352.876 247.502 352.876 247.679V248.692C352.876 248.869 353.02 249.013 353.197 249.013Z" fill="#3F3D56"/>
<path d="M528 379C503.444 358.728 437.773 351.956 411 345L474.436 424C500.527 421.516 552.556 399.272 528 379Z" fill="#3C4355"/>
</g>
<defs>
<clipPath id="clip0_41_249">
<rect width="549" height="417" fill="white" transform="translate(144)"/>
</clipPath>
</defs>
</svg>
